<svg width="56" height="56" viewBox="0 0 56 56" fill="none" xmlns="http://www.w3.org/2000/svg">
<g filter="url(#filter0_d_1_6320)">
<path d="M4 12C4 5.37258 9.37258 0 16 0H40C46.6274 0 52 5.37258 52 12V36C52 42.6274 46.6274 48 40 48H16C9.37258 48 4 42.6274 4 36V12Z" fill="#EF4444" fill-opacity="0.1" shape-rendering="crispEdges"/>
<path d="M31 14H22C21.4696 14 20.9609 14.2107 20.5858 14.5858C20.2107 14.9609 20 15.4696 20 16V32C20 32.5304 20.2107 33.0391 20.5858 33.4142C20.9609 33.7893 21.4696 34 22 34H34C34.5304 34 35.0391 33.7893 35.4142 33.4142C35.7893 33.0391 36 32.5304 36 32V19L31 14Z" stroke="#EF4444" stroke-width="2" stroke-linecap="round" stroke-linejoin="round"/>
<path d="M30 14V18C30 18.5304 30.2107 19.0391 30.5858 19.4142C30.9609 19.7893 31.4696 20 32 20H36" stroke="#EF4444" stroke-width="2" stroke-linecap="round" stroke-linejoin="round"/>
<path d="M26 21H24" stroke="#EF4444" stroke-width="2" stroke-linecap="round" stroke-linejoin="round"/>
<path d="M32 25H24" stroke="#EF4444" stroke-width="2" stroke-linecap="round" stroke-linejoin="round"/>
<path d="M32 29H24" stroke="#EF4444" stroke-width="2" stroke-linecap="round" stroke-linejoin="round"/>
</g>
<defs>
<filter id="filter0_d_1_6320" x="0" y="0" width="56" height="56" filterUnits="userSpaceOnUse" color-interpolation-filters="sRGB">
<feFlood flood-opacity="0" result="BackgroundImageFix"/>
<feColorMatrix in="SourceAlpha" type="matrix" values="0 0 0 0 0 0 0 0 0 0 0 0 0 0 0 0 0 0 127 0" result="hardAlpha"/>
<feOffset dy="4"/>
<feGaussianBlur stdDeviation="2"/>
<feComposite in2="hardAlpha" operator="out"/>
<feColorMatrix type="matrix" values="0 0 0 0 0 0 0 0 0 0 0 0 0 0 0 0 0 0 0.25 0"/>
<feBlend mode="normal" in2="BackgroundImageFix" result="effect1_dropShadow_1_6320"/>
<feBlend mode="normal" in="SourceGraphic" in2="effect1_dropShadow_1_6320" result="shape"/>
</filter>
</defs>
</svg>
