<svg width="40" height="40" viewBox="0 0 40 40" fill="none" xmlns="http://www.w3.org/2000/svg">
<path d="M0 12C0 5.37258 5.37258 0 12 0H28C34.6274 0 40 5.37258 40 12V28C40 34.6274 34.6274 40 28 40H12C5.37258 40 0 34.6274 0 28V12Z" fill="url(#paint0_linear_241_141)"/>
<path d="M20 15V29V15Z" fill="#D9D9D9"/>
<path d="M20 15V29" stroke="white" stroke-width="2" stroke-linecap="round" stroke-linejoin="round"/>
<path d="M11 26C10.7348 26 10.4804 25.8946 10.2929 25.7071C10.1054 25.5196 10 25.2652 10 25V12C10 11.7348 10.1054 11.4804 10.2929 11.2929C10.4804 11.1054 10.7348 11 11 11H16C17.0609 11 18.0783 11.4214 18.8284 12.1716C19.5786 12.9217 20 13.9391 20 15C20 13.9391 20.4214 12.9217 21.1716 12.1716C21.9217 11.4214 22.9391 11 24 11H29C29.2652 11 29.5196 11.1054 29.7071 11.2929C29.8946 11.4804 30 11.7348 30 12V25C30 25.2652 29.8946 25.5196 29.7071 25.7071C29.5196 25.8946 29.2652 26 29 26H23C22.2044 26 21.4413 26.3161 20.8787 26.8787C20.3161 27.4413 20 28.2044 20 29C20 28.2044 19.6839 27.4413 19.1213 26.8787C18.5587 26.3161 17.7956 26 17 26H11Z" stroke="white" stroke-width="2" stroke-linecap="round" stroke-linejoin="round"/>
<defs>
<linearGradient id="paint0_linear_241_141" x1="20" y1="-6.10737" x2="20" y2="46.9898" gradientUnits="userSpaceOnUse">
<stop stop-color="#6366F1"/>
<stop offset="1" stop-color="#393B8B"/>
</linearGradient>
</defs>
</svg>
