<svg width="56" height="56" viewBox="0 0 56 56" fill="none" xmlns="http://www.w3.org/2000/svg">
<g filter="url(#filter0_d_1_6332)">
<path d="M4 12C4 5.37258 9.37258 0 16 0H40C46.6274 0 52 5.37258 52 12V36C52 42.6274 46.6274 48 40 48H16C9.37258 48 4 42.6274 4 36V12Z" fill="#8B5CF6" fill-opacity="0.1" shape-rendering="crispEdges"/>
<path d="M32 33V31C32 29.9391 31.5786 28.9217 30.8284 28.1716C30.0783 27.4214 29.0609 27 28 27H22C20.9391 27 19.9217 27.4214 19.1716 28.1716C18.4214 28.9217 18 29.9391 18 31V33" stroke="#8B5CF6" stroke-width="2" stroke-linecap="round" stroke-linejoin="round"/>
<path d="M25 23C27.2091 23 29 21.2091 29 19C29 16.7909 27.2091 15 25 15C22.7909 15 21 16.7909 21 19C21 21.2091 22.7909 23 25 23Z" stroke="#8B5CF6" stroke-width="2" stroke-linecap="round" stroke-linejoin="round"/>
<path d="M38 33V31C37.9993 30.1137 37.7044 29.2528 37.1614 28.5523C36.6184 27.8519 35.8581 27.3516 35 27.13" stroke="#8B5CF6" stroke-width="2" stroke-linecap="round" stroke-linejoin="round"/>
<path d="M32 15.13C32.8604 15.3503 33.623 15.8507 34.1676 16.5523C34.7122 17.2539 35.0078 18.1168 35.0078 19.005C35.0078 19.8932 34.7122 20.7561 34.1676 21.4577C33.623 22.1593 32.8604 22.6597 32 22.88" stroke="#8B5CF6" stroke-width="2" stroke-linecap="round" stroke-linejoin="round"/>
</g>
<defs>
<filter id="filter0_d_1_6332" x="0" y="0" width="56" height="56" filterUnits="userSpaceOnUse" color-interpolation-filters="sRGB">
<feFlood flood-opacity="0" result="BackgroundImageFix"/>
<feColorMatrix in="SourceAlpha" type="matrix" values="0 0 0 0 0 0 0 0 0 0 0 0 0 0 0 0 0 0 127 0" result="hardAlpha"/>
<feOffset dy="4"/>
<feGaussianBlur stdDeviation="2"/>
<feComposite in2="hardAlpha" operator="out"/>
<feColorMatrix type="matrix" values="0 0 0 0 0 0 0 0 0 0 0 0 0 0 0 0 0 0 0.25 0"/>
<feBlend mode="normal" in2="BackgroundImageFix" result="effect1_dropShadow_1_6332"/>
<feBlend mode="normal" in="SourceGraphic" in2="effect1_dropShadow_1_6332" result="shape"/>
</filter>
</defs>
</svg>
