<svg width="20" height="15" viewBox="0 0 20 15" fill="none" xmlns="http://www.w3.org/2000/svg">
<path d="M18.125 1.25C18.4702 1.25 18.75 1.52982 18.75 1.875V13.125C18.75 13.4702 18.4702 13.75 18.125 13.75H1.875C1.52982 13.75 1.25 13.4702 1.25 13.125V1.875C1.25 1.52982 1.52982 1.25 1.875 1.25H18.125ZM1.875 0C0.839466 0 0 0.839466 0 1.875V13.125C0 14.1605 0.839466 15 1.875 15H18.125C19.1605 15 20 14.1605 20 13.125V1.875C20 0.839466 19.1605 0 18.125 0H1.875Z" fill="#6B7280"/>
<path d="M8.75 4.375C8.75 4.02982 9.02982 3.75 9.375 3.75H15.625C15.9702 3.75 16.25 4.02982 16.25 4.375C16.25 4.72018 15.9702 5 15.625 5H9.375C9.02982 5 8.75 4.72018 8.75 4.375Z" fill="#6B7280"/>
<path d="M6.87944 3.30806C7.12352 3.55214 7.12352 3.94786 6.87944 4.19194L5.00444 6.06694C4.76037 6.31102 4.36464 6.31102 4.12056 6.06694L3.49556 5.44194C3.25148 5.19786 3.25148 4.80214 3.49556 4.55806C3.73964 4.31398 4.13537 4.31398 4.37944 4.55806L4.5625 4.74112L5.99556 3.30806C6.23964 3.06398 6.63537 3.06398 6.87944 3.30806Z" fill="#6B7280"/>
<path d="M8.75 9.375C8.75 9.02982 9.02982 8.75 9.375 8.75H15.625C15.9702 8.75 16.25 9.02982 16.25 9.375C16.25 9.72018 15.9702 10 15.625 10H9.375C9.02982 10 8.75 9.72018 8.75 9.375Z" fill="#6B7280"/>
<path d="M6.87944 8.30806C7.12352 8.55214 7.12352 8.94786 6.87944 9.19194L5.00444 11.0669C4.76037 11.311 4.36464 11.311 4.12056 11.0669L3.49556 10.4419C3.25148 10.1979 3.25148 9.80214 3.49556 9.55806C3.73964 9.31398 4.13537 9.31398 4.37944 9.55806L4.5625 9.74112L5.99556 8.30806C6.23964 8.06398 6.63537 8.06398 6.87944 8.30806Z" fill="#6B7280"/>
</svg>
