<svg width="56" height="56" viewBox="0 0 56 56" fill="none" xmlns="http://www.w3.org/2000/svg">
<g filter="url(#filter0_d_1_6291)">
<path d="M4 12C4 5.37258 9.37258 0 16 0H40C46.6274 0 52 5.37258 52 12V36C52 42.6274 46.6274 48 40 48H16C9.37258 48 4 42.6274 4 36V12Z" fill="#6366F1" fill-opacity="0.1" shape-rendering="crispEdges"/>
<path d="M24 14V18" stroke="#6366F1" stroke-width="2" stroke-linecap="round" stroke-linejoin="round"/>
<path d="M32 14V18" stroke="#6366F1" stroke-width="2" stroke-linecap="round" stroke-linejoin="round"/>
<path d="M35 16H21C19.8954 16 19 16.8954 19 18V32C19 33.1046 19.8954 34 21 34H35C36.1046 34 37 33.1046 37 32V18C37 16.8954 36.1046 16 35 16Z" stroke="#6366F1" stroke-width="2" stroke-linecap="round" stroke-linejoin="round"/>
<path d="M19 22H37" stroke="#6366F1" stroke-width="2" stroke-linecap="round" stroke-linejoin="round"/>
</g>
<defs>
<filter id="filter0_d_1_6291" x="0" y="0" width="56" height="56" filterUnits="userSpaceOnUse" color-interpolation-filters="sRGB">
<feFlood flood-opacity="0" result="BackgroundImageFix"/>
<feColorMatrix in="SourceAlpha" type="matrix" values="0 0 0 0 0 0 0 0 0 0 0 0 0 0 0 0 0 0 127 0" result="hardAlpha"/>
<feOffset dy="4"/>
<feGaussianBlur stdDeviation="2"/>
<feComposite in2="hardAlpha" operator="out"/>
<feColorMatrix type="matrix" values="0 0 0 0 0 0 0 0 0 0 0 0 0 0 0 0 0 0 0.25 0"/>
<feBlend mode="normal" in2="BackgroundImageFix" result="effect1_dropShadow_1_6291"/>
<feBlend mode="normal" in="SourceGraphic" in2="effect1_dropShadow_1_6291" result="shape"/>
</filter>
</defs>
</svg>
